<?xml version="1.0" standalone="no"?>
<!DOCTYPE svg PUBLIC "-//W3C//DTD SVG 20010904//EN"
 "http://www.w3.org/TR/2001/REC-SVG-20010904/DTD/svg10.dtd">
<svg version="1.0" xmlns="http://www.w3.org/2000/svg"
 width="557.000000pt" height="554.000000pt" viewBox="0 0 557.000000 554.000000"
 preserveAspectRatio="xMidYMid meet">

<g transform="translate(0.000000,554.000000) scale(0.100000,-0.100000)"
fill="#000000" stroke="none">
<path d="M2560 5438 c-241 -25 -523 -92 -730 -175 -452 -180 -884 -499 -1161
-859 -270 -350 -428 -685 -508 -1079 -51 -246 -56 -302 -55 -585 1 -244 3
-276 28 -405 54 -285 130 -512 248 -749 388 -776 1116 -1300 2024 -1458 112
-20 163 -23 389 -22 226 0 277 3 390 23 530 93 981 299 1355 617 105 89 288
275 362 369 188 237 366 574 451 855 44 145 76 289 99 445 29 199 31 525 5
695 -48 313 -124 562 -247 815 -337 694 -979 1222 -1739 1431 -292 81 -633
111 -911 82z m1060 -1620 l0 -923 -408 -197 c-224 -109 -412 -198 -419 -198
-7 0 -188 85 -403 189 -215 105 -400 193 -410 196 -19 6 -20 19 -20 489 l0
483 138 73 c272 145 498 268 547 298 28 17 133 74 235 128 102 53 291 153 420
222 200 106 307 161 318 162 1 0 2 -415 2 -922z m-1922 -545 l-3 -178 -202
-100 c-112 -55 -203 -102 -203 -105 0 -3 33 -21 73 -40 90 -42 1089 -526 1252
-606 161 -80 176 -79 361 7 76 36 404 196 727 355 l588 289 -78 37 c-43 21
-135 65 -205 98 l-128 61 0 179 0 179 73 -33 c230 -107 554 -273 584 -299 19
-16 46 -53 61 -81 l27 -51 3 -634 c3 -729 5 -709 -77 -791 -42 -42 -199 -130
-231 -130 -11 0 -14 122 -10 505 1 138 -1 325 -5 416 l-8 166 -176 -87 c-97
-48 -241 -119 -321 -158 -80 -38 -302 -147 -495 -242 -192 -95 -387 -190 -432
-211 l-83 -39 0 -536 0 -535 -47 7 c-61 9 -100 23 -195 69 l-78 38 0 557 0
556 -217 107 c-120 58 -392 191 -605 296 l-388 189 0 -549 0 -550 -121 62
c-105 54 -125 68 -150 107 -49 78 -51 100 -47 767 3 686 0 651 69 730 28 31
95 68 354 196 176 87 323 158 328 158 4 1 6 -79 5 -176z"/>
<path d="M3265 4167 c-17 -8 -44 -32 -60 -53 -28 -37 -394 -486 -478 -586 -22
-27 -43 -48 -47 -48 -3 0 -60 59 -125 131 -88 97 -131 137 -164 152 -134 59
-277 -78 -216 -207 17 -35 368 -405 423 -445 40 -30 111 -33 159 -8 34 18 47
32 288 322 77 93 201 241 275 329 172 204 170 201 170 259 0 91 -58 158 -142
164 -31 2 -66 -2 -83 -10z"/>
</g>
</svg>
